<svg xmlns="http://www.w3.org/2000/svg" version="1.1" xmlns:xlink="http://www.w3.org/1999/xlink" width="512" height="512" x="0" y="0" viewBox="0 0 152 152" style="enable-background:new 0 0 512 512" xml:space="preserve"><g><path d="M140.9 140.9V93.3c0-23.4-5-41.2-32.3-41.2-13.1 0-21.9 7.1-25.5 14h-.3V54.2H57v86.7h27V98c0-11.4 2.1-22.2 16.2-22.2s14 13 14 23V141zM13.2 54.2h26.9v86.7H13.2zM26.7 11C18.1 11 11 18 11 26.6s7 15.7 15.6 15.7 15.7-7 15.7-15.6v-.2c0-8.5-7-15.5-15.6-15.5z" fill="#000000" opacity="1" data-original="#000000"></path></g></svg>