<?xml version="1.0" encoding="utf-8"?>
<!-- Generator: Adobe Illustrator 25.4.1, SVG Export Plug-In . SVG Version: 6.00 Build 0)  -->
<svg version="1.1" id="Layer_1" xmlns:svgjs="http://svgjs.com/svgjs"
	 xmlns="http://www.w3.org/2000/svg" xmlns:xlink="http://www.w3.org/1999/xlink" x="0px" y="0px" viewBox="0 0 512 512"
	 style="enable-background:new 0 0 512 512;" xml:space="preserve">
<style type="text/css">
	.st0{fill:#0369A1;}
</style>
<g>
	<path class="st0" d="M490.4,425.2l-12.6-38.3c-0.1-0.3-0.1-0.5-0.2-0.7l-0.1-0.2L372,65.6c-3.6-10.6-9.5-20.2-17.2-28.3
		c-0.2-0.6-0.6-1.2-1-1.7C334,14,287,3.4,286.5,3.3c-66.8-14.7-131.2,20.3-153.2,83.2L21.7,424.2c-5.9,16.5-4.9,34.7,2.8,50.4
		c7.5,15.8,21.1,27.9,37.6,33.6c7,2.5,14.4,3.8,21.9,3.8c9.7,0,19.4-2.2,28.5-6.6c15.8-7.6,27.9-21.1,33.7-37.7l29.6-88.6
		l216.7,122.1c2.1,1.2,4.2,2.2,6.2,3.1c13.7,6.2,28.9,8.5,43.8,6.6c2.6-0.5,5.1-1.2,7.6-2.1c13.3-4.4,24.7-13.1,32.4-24.7l1.5-2.3
		C494.6,464.9,496.9,444.1,490.4,425.2L490.4,425.2z M361.7,69l105.5,320c0,0.3,0.1,0.6,0.1,0.9c1.2,10.8,0.7,15.9,0.2,18.2
		l-134.1-77.6L263,117.8l16.7-50.1c1.9-6,4.7-11.7,8.1-16.9c4.8-7,9.8-11.4,16.2-14.5c7.6-3.8,30.8,1.5,41.4,6.8
		C352.8,50.3,358.4,59.2,361.7,69L361.7,69z M319.3,322.5l-61.5-34.6c-14.3-8-29.9-13.7-46-16.8L257.3,135L319.3,322.5z M143.6,90
		c20.1-57.5,79.2-89.6,140.6-76c10.9,2.7,21.7,6.2,32.1,10.5c-6.5-0.5-12.6,0-17,2.1c-8.2,3.9-14.5,9.5-20.4,18.2
		c-4,6.1-7.2,12.7-9.5,19.6l-68.5,205.1c-50-6.7-99,10.9-125.3,45.4c-0.3,0.4-0.6,0.7-0.9,1.1l-10.2,13.6L143.6,90z M135.9,464.2
		c-4.8,13.8-14.9,25.1-28.1,31.4c-13.1,6.4-28.3,7.2-42,2.3c-13.8-4.8-25.1-14.9-31.4-28c-6.4-13.2-7.2-28.4-2.3-42.2l22.8-68.9
		c1-0.3,1.9-0.9,2.6-1.8c6.2-8.3,16.1-13.8,27.9-15.5c12-1.8,24.4,0.4,35,6.4l45.8,25.8L135.9,464.2z M474.9,475.9l-1.6,2.5
		c-6.5,9.5-16,16.6-26.9,20.2c-2,0.8-4.2,1.3-5.7,1.6c-12.5,1.4-26.1-0.5-37.5-5.8c-1.8-0.8-3.6-1.7-5.4-2.7l-272-153.3
		c-12.7-7.3-27.5-10-42-7.7c-2.6,0.4-5.2,0.9-7.8,1.7l7.9-10.5c25.2-32.9,72.3-49.1,120.1-41.3c16.8,2.5,33.2,8.2,48.6,16.8
		l68.7,38.7l142.2,82.2c4.8,2.7,8.3,1.3,10,0.1c1-0.7,1.9-1.5,2.5-2.5l4.2,12.8C485.6,444.4,483.7,461.8,474.9,475.9L474.9,475.9z"
		/>
</g>
</svg>
