<svg xmlns:xlink="http://www.w3.org/1999/xlink" xmlns="http://www.w3.org/2000/svg" width="340.5310959703584" height="261.35625" viewBox="0 0 350 268.6235958549948" class="css-1j8o68f"><defs id="SvgjsDefs1565"></defs><g id="SvgjsG1566" featurekey="j5pGhi-0" transform="matrix(23.774467188657542,0,0,23.774467188657542,-24.145920565381573,-195.02195598102094)" fill="#0569A0"><path d="M6.5918 8.203 q2.470703125 0 4.1015625 1.787109375 q1.50390625 1.630859375 1.50390625 3.876953125 q0.01953125 5.546875 0 5.634765625 l-1.4551 0 l0 -2.4316 q-1.142578125 2.12890625 -4.150390625 2.3828125 q-2.4609375 0 -4.018554688 -1.674804688 t-1.5576 -3.9111 q0 -2.2265625 1.474609375 -3.8671875 q1.630859375 -1.796875 4.1015625 -1.796875 z M6.5918 9.551 q-1.708984375 0 -2.939453125 1.26953125 t-1.2305 3.0664 q0 1.162109375 0.6298828125 2.236328125 t2.1338 1.8164 q3.76953125 0.83984375 5.361328125 -3.427734375 q0.087890625 -1.3671875 -0.29296875 -2.6171875 q-0.2734375 -0.56640625 -0.751953125 -1.07421875 q-1.201171875 -1.26953125 -2.91015625 -1.26953125 z M14.5263578125 17.0215 q0.498046875 0 0.8544921875 0.3564453125 t0.35645 0.86426 q0 0.498046875 -0.3564453125 0.8544921875 t-0.85449 0.35645 q-0.5078125 0 -0.859375 -0.3564453125 t-0.35156 -0.85449 q0 -0.5078125 0.3515625 -0.8642578125 t0.85938 -0.35645 z" fill="#0569A0"></path></g></svg>