<?xml version="1.0" standalone="no"?>
<!DOCTYPE svg PUBLIC "-//W3C//DTD SVG 20010904//EN"
 "http://www.w3.org/TR/2001/REC-SVG-20010904/DTD/svg10.dtd">
<svg version="1.0" xmlns="http://www.w3.org/2000/svg"
 width="340.000000pt" height="340.000000pt" viewBox="0 0 340.000000 340.000000"
 preserveAspectRatio="xMidYMid meet">
<metadata>
Created by potrace 1.14, written by Peter Selinger 2001-2017
</metadata>
<g transform="translate(0.000000,340.000000) scale(0.100000,-0.100000)"
fill="#000000" stroke="none">
<path d="M1120 2990 c-25 -4 -63 -11 -85 -14 -182 -29 -377 -118 -537 -243
-31 -25 -188 -182 -213 -213 -23 -30 -95 -135 -112 -164 -39 -69 -99 -205
-109 -248 -1 -5 -2 -9 -4 -10 -1 -2 -3 -10 -5 -18 -2 -8 -6 -25 -9 -37 -3 -13
-9 -33 -12 -45 -22 -92 -31 -196 -28 -331 3 -158 4 -166 24 -261 32 -154 130
-373 214 -478 11 -14 32 -41 46 -59 67 -89 278 -279 310 -279 5 0 10 -4 10 -9
0 -5 8 -11 18 -15 9 -3 24 -10 32 -16 25 -16 141 -68 195 -85 89 -30 156 -43
295 -60 92 -12 255 0 348 24 21 5 51 12 67 15 46 7 194 60 255 91 61 31 158
94 204 134 80 68 186 194 186 221 0 5 4 10 8 10 5 0 14 10 20 23 8 16 11 -48
11 -255 l1 -278 169 0 170 0 -1 673 c-2 725 -5 813 -42 963 -39 160 -135 353
-241 484 -27 33 -194 200 -225 226 -47 38 -119 84 -129 84 -6 0 -11 4 -11 8 0
8 -136 75 -142 71 -2 -1 -22 8 -45 20 -24 12 -43 18 -43 14 0 -4 -5 -2 -12 5
-7 7 -23 12 -36 12 -13 0 -32 4 -42 10 -10 5 -42 13 -72 16 -29 3 -57 9 -62
12 -15 8 -316 10 -366 2z m326 -314 c88 -13 301 -94 312 -118 2 -5 10 -8 18
-8 8 0 14 -4 14 -10 0 -5 5 -10 11 -10 6 0 16 -6 24 -12 7 -7 30 -26 50 -43
32 -25 69 -62 130 -129 17 -18 80 -108 104 -149 31 -51 66 -186 87 -337 3 -25
7 -106 8 -180 2 -122 0 -141 -21 -195 -33 -81 -106 -229 -115 -233 -5 -2 -8
-8 -8 -13 0 -9 -66 -116 -84 -136 -6 -6 -22 -26 -36 -44 -37 -48 -162 -168
-182 -175 -10 -3 -18 -9 -18 -13 0 -5 -46 -31 -102 -59 -137 -67 -249 -94
-398 -94 -90 0 -225 15 -277 31 -2 1 -6 1 -9 0 -4 0 -10 3 -13 8 -3 4 -24 17
-46 28 -22 11 -46 26 -53 33 -7 6 -20 12 -28 12 -8 0 -14 5 -14 10 0 6 -5 10
-11 10 -6 0 -17 6 -24 12 -8 7 -20 18 -27 23 -141 107 -228 206 -292 332 -84
167 -118 304 -117 471 0 59 2 116 4 127 3 11 8 42 12 69 7 54 52 194 67 214 6
6 8 12 4 12 -3 0 8 23 24 50 17 28 30 55 30 60 0 6 5 10 10 10 6 0 10 5 10 11
0 6 6 16 13 23 6 8 19 24 27 37 15 23 136 147 181 184 120 101 289 174 440
191 30 3 55 7 57 9 5 4 194 -3 238 -9z"/>
<path d="M3052 948 c-7 -7 -12 -9 -12 -5 0 14 -80 -34 -115 -68 -44 -45 -61
-78 -73 -143 -10 -58 0 -138 24 -185 20 -38 89 -105 122 -119 50 -21 57 -22
132 -22 114 -1 193 48 246 154 24 47 26 61 22 134 -4 67 -9 89 -33 126 -56 90
-128 132 -229 136 -46 2 -77 -1 -84 -8z"/>
</g>
</svg>
